<svg width="72" height="72" viewBox="0 0 72 72" fill="none" xmlns="http://www.w3.org/2000/svg">
<g clip-path="url(#clip0_107_86)">
<path d="M25.8846 40.1805L25.4872 39.702L25.1053 40.193L14.6053 53.693L13.9777 54.5H15H57H58L57.4 53.7L43.9 35.7L43.5068 35.1757L43.105 35.6935L32.9868 48.7315L25.8846 40.1805ZM9.5 9.5H62.5V62.5H9.5V9.5Z" stroke="black"/>
<path d="M25.5 40.125L14.625 54.375H57.75L43.5 35.625L33 48.75L25.5 40.125Z" fill="black"/>
<path d="M57 19.5H66V10.5H72L61.5 0L51 10.5H57V19.5ZM51 22.5H72V25.5H51V22.5Z" fill="black"/>
</g>
<defs>
<clipPath id="clip0_107_86">
<rect width="72" height="72" fill="white"/>
</clipPath>
</defs>
</svg>
